Coordinates
version=1
nRows=7
nColumns=40
inDegrees=yes

Units are S.I. units (second, meters, Newtons, ...)
If the header above contains a line with 'inDegrees', this indicates whether rotational values are in degrees (yes) or radians (no).

endheader
time	pelvis_tilt	pelvis_list	pelvis_rotation	pelvis_tx	pelvis_ty	pelvis_tz	hip_flexion_r	hip_adduction_r	hip_rotation_r	knee_angle_r	knee_angle_r_beta	ankle_angle_r	subtalar_angle_r	mtp_angle_r	hip_flexion_l	hip_adduction_l	hip_rotation_l	knee_angle_l	knee_angle_l_beta	ankle_angle_l	subtalar_angle_l	mtp_angle_l	lumbar_extension	lumbar_bending	lumbar_rotation	arm_flex_r	arm_add_r	arm_rot_r	elbow_flex_r	pro_sup_r	wrist_flex_r	wrist_dev_r	arm_flex_l	arm_add_l	arm_rot_l	elbow_flex_l	pro_sup_l	wrist_flex_l	wrist_dev_l
      4.00000000	      4.04725650	      3.48176787	      2.73709599	     -0.38660187	      0.85589183	     -0.76126693	     39.02686094	      2.64653452	      0.53387253	     73.85998733	      1.28909996	     25.74754355	      0.00000000	      0.00000000	     60.57856864	      5.36806851	      3.75781377	     16.52589258	      0.28843124	     -3.45875450	      0.00000000	      0.00000000	    -37.89514402	     -1.04591809	     -2.80404474	     89.92140402	    -12.25387233	     11.70089530	     51.44194934	     86.74441722	      0.00000000	      0.00000000	     89.93712227	     -7.24794783	      9.82300264	     53.03857523	     85.82897475	      0.00000000	      0.00000000
      4.00500000	      3.98475016	      3.49767460	      2.71544614	     -0.38640530	      0.85751050	     -0.76115691	     38.90384414	      2.58369477	      0.47071154	     73.51872423	      1.28314380	     25.58013553	      0.00000000	      0.00000000	     60.43887827	      5.36726392	      3.77586001	     16.54734616	      0.28880567	     -3.45628394	      0.00000000	      0.00000000	    -37.80280347	     -1.07908685	     -2.78647696	     89.92091909	    -12.27377050	     11.75151408	     51.38431283	     86.74823711	      0.00000000	      0.00000000	     89.93668895	     -7.26123973	      9.85453618	     53.03592704	     85.83658735	      0.00000000	      0.00000000
      4.01000000	      4.04540080	      3.42070026	      2.78474944	     -0.38625751	      0.85949714	     -0.76110890	     38.59821217	      2.57235437	      0.32213490	     73.07720604	      1.27543785	     25.22789843	      0.00000000	      0.00000000	     60.14461157	      5.38509422	      3.89809048	     16.52179008	      0.28835964	     -3.47830481	      0.00000000	      0.00000000	    -37.84269128	     -0.97019738	     -2.76377624	     89.92119068	    -12.33182731	     11.83903303	     51.32079889	     86.75186325	      0.00000000	      0.00000000	     89.93671343	     -7.26082343	      9.95633731	     52.97766176	     85.86117949	      0.00000000	      0.00000000
      4.01500000	      3.89971435	      3.48139423	      2.78742187	     -0.38607802	      0.86094407	     -0.76113246	     38.57230852	      2.44551251	      0.29777580	     72.76416127	      1.26997419	     25.13852188	      0.00000000	      0.00000000	     60.09675414	      5.43677386	      3.92965865	     16.54263196	      0.28872339	     -3.43615412	      0.00000000	      0.00000000	    -37.66655641	     -1.01487666	     -2.75076705	     89.92068364	    -12.35901021	     11.85012252	     51.31058088	     86.75367298	      0.00000000	      0.00000000	     89.93627914	     -7.27229515	      9.96072036	     52.98724705	     85.86402117	      0.00000000	      0.00000000
      4.02000000	      3.79138600	      3.53085408	      2.79833347	     -0.38596034	      0.86262256	     -0.76106195	     38.47414506	      2.33923543	      0.26473736	     72.36770116	      1.26305466	     24.98559879	      0.00000000	      0.00000000	     59.99841861	      5.48027608	      3.96494047	     16.56134943	      0.28905008	     -3.41235415	      0.00000000	      0.00000000	    -37.54419322	     -1.07739839	     -2.77514052	     89.92020210	    -12.38362228	     11.88388557	     51.28836509	     86.75818828	      0.00000000	      0.00000000	     89.93619070	     -7.25434276	      9.99751118	     52.97632671	     85.87123769	      0.00000000	      0.00000000
      4.02500000	      3.78735392	      3.39857796	      2.86491189	     -0.38576343	      0.86440173	     -0.76102427	     38.23725956	      2.38001675	      0.07029344	     71.90765490	      1.25502534	     24.63461763	      0.00000000	      0.00000000	     59.79730093	      5.45626556	      4.08719366	     16.58618863	      0.28948360	     -3.38883582	      0.00000000	      0.00000000	    -37.50109912	     -0.92788752	     -2.74143824	     89.92045122	    -12.44524747	     12.01138499	     51.19016356	     86.77052332	      0.00000000	      0.00000000	     89.93593863	     -7.26780318	     10.10030414	     52.88054100	     85.88948252	      0.00000000	      0.00000000
      4.03000000	      3.69266529	      3.47153591	      2.83863271	     -0.38561946	      0.86606753	     -0.76102561	     38.14674603	      2.24644621	      0.05540566	     71.57237120	      1.24917353	     24.52406254	      0.00000000	      0.00000000	     59.69771430	      5.46593746	      4.06408855	     16.60712469	      0.28984901	     -3.42942201	      0.00000000	      0.00000000	    -37.38992828	     -0.99033753	     -2.71306655	     89.91990069	    -12.46109562	     12.01838246	     51.20863621	     86.76892220	      0.00000000	      0.00000000	     89.93588999	     -7.26729748	     10.11779304	     52.89108649	     85.89383573	      0.00000000	      0.00000000
